<svg width="1200" height="733" viewBox="0 0 1200 733" fill="none" xmlns="http://www.w3.org/2000/svg">
<path d="M20.4818 560.986L21.2599 563.41C21.9902 565.686 24.1067 567.229 26.4967 567.229H29.1439C33.4898 567.229 35.3111 572.78 31.8102 575.355L29.5634 577.007C27.6593 578.408 26.863 580.868 27.5853 583.119L28.4185 585.715C29.7523 589.87 24.9833 593.301 21.4675 590.715L19.4559 589.235C17.5173 587.809 14.8768 587.809 12.9383 589.235L10.9266 590.715C7.41078 593.301 2.64185 589.87 3.97562 585.715L4.80883 583.119C5.53115 580.868 4.73479 578.408 2.83074 577.007L0.583903 575.355C-2.91697 572.78 -1.09567 567.229 3.25019 567.229H5.89739C8.28742 567.229 10.4039 565.686 11.1343 563.41L11.9123 560.986C13.2496 556.82 19.1446 556.82 20.4818 560.986Z" fill="#586157" fill-opacity="0.4" stroke="black"/>
<path d="M1.24962 226.833C2.73542 222.204 9.28541 222.204 10.7712 226.833L11.5493 229.257C12.2133 231.326 14.1373 232.729 16.3101 232.729H18.9573C23.786 232.729 25.8097 238.896 21.9198 241.757L19.673 243.41C17.942 244.683 17.2181 246.92 17.8747 248.966L18.7079 251.562C20.1899 256.179 14.8911 259.991 10.9846 257.118L8.97296 255.638C7.21061 254.342 4.81022 254.342 3.04788 255.638L1.03623 257.118C-2.87026 259.991 -8.16908 256.179 -6.68711 251.562L-5.8539 248.966C-5.19724 246.92 -5.9212 244.683 -7.65216 243.41L-9.899 241.757C-13.7889 238.896 -11.7652 232.729 -6.93645 232.729H-4.28925C-2.1165 232.729 -0.192444 231.326 0.471549 229.257L1.24962 226.833Z" fill="#586157" fill-opacity="0.4"/>
<path d="M1107.89 632.833C1109.38 628.204 1115.93 628.204 1117.41 632.833L1118.19 635.257C1118.85 637.326 1120.78 638.729 1122.95 638.729H1125.6C1130.43 638.729 1132.45 644.896 1128.56 647.757L1126.31 649.41C1124.58 650.683 1123.86 652.92 1124.52 654.966L1125.35 657.562C1126.83 662.179 1121.53 665.991 1117.63 663.118L1115.61 661.638C1113.85 660.342 1111.45 660.342 1109.69 661.638L1107.68 663.118C1103.77 665.991 1098.47 662.179 1099.95 657.562L1100.79 654.966C1101.44 652.92 1100.72 650.683 1098.99 649.41L1096.74 647.757C1092.85 644.896 1094.88 638.729 1099.7 638.729H1102.35C1104.52 638.729 1106.45 637.326 1107.11 635.257L1107.89 632.833Z" fill="#586157" fill-opacity="0.4"/>
<path d="M123.489 56.8333C124.975 52.2039 131.525 52.2039 133.011 56.8333L133.789 59.2575C134.453 61.3263 136.377 62.7295 138.55 62.7295H141.197C146.026 62.7295 148.049 68.8962 144.16 71.7573L141.913 73.4099C140.182 74.6831 139.458 76.9198 140.114 78.9657L140.948 81.5618C142.43 86.1791 137.131 89.9909 133.224 87.1176L131.213 85.638C129.45 84.3417 127.05 84.3417 125.288 85.638L123.276 87.1176C119.369 89.9909 114.071 86.1791 115.553 81.5618L116.386 78.9657C117.043 76.9198 116.319 74.6831 114.588 73.4099L112.341 71.7573C108.451 68.8962 110.475 62.7295 115.303 62.7295H117.95C120.123 62.7295 122.047 61.3263 122.711 59.2575L123.489 56.8333Z" fill="#586157" fill-opacity="0.4"/>
<path d="M1186.61 130.833C1188.09 126.204 1194.64 126.204 1196.13 130.833L1196.91 133.257C1197.57 135.326 1199.49 136.729 1201.67 136.729H1204.31C1209.14 136.729 1211.17 142.896 1207.28 145.757L1205.03 147.41C1203.3 148.683 1202.57 150.92 1203.23 152.966L1204.06 155.562C1205.55 160.179 1200.25 163.991 1196.34 161.118L1194.33 159.638C1192.57 158.342 1190.17 158.342 1188.4 159.638L1186.39 161.118C1182.49 163.991 1177.19 160.179 1178.67 155.562L1179.5 152.966C1180.16 150.92 1179.43 148.683 1177.7 147.41L1175.46 145.757C1171.57 142.896 1173.59 136.729 1178.42 136.729H1181.07C1183.24 136.729 1185.16 135.326 1185.83 133.257L1186.61 130.833Z" fill="#586157" fill-opacity="0.4"/>
<path d="M1186.61 500.833C1188.09 496.204 1194.64 496.204 1196.13 500.833L1196.91 503.257C1197.57 505.326 1199.49 506.729 1201.67 506.729H1204.31C1209.14 506.729 1211.17 512.896 1207.28 515.757L1205.03 517.41C1203.3 518.683 1202.57 520.92 1203.23 522.966L1204.06 525.562C1205.55 530.179 1200.25 533.991 1196.34 531.118L1194.33 529.638C1192.57 528.342 1190.17 528.342 1188.4 529.638L1186.39 531.118C1182.49 533.991 1177.19 530.179 1178.67 525.562L1179.5 522.966C1180.16 520.92 1179.43 518.683 1177.7 517.41L1175.46 515.757C1171.57 512.896 1173.59 506.729 1178.42 506.729H1181.07C1183.24 506.729 1185.16 505.326 1185.83 503.257L1186.61 500.833Z" fill="#586157" fill-opacity="0.4"/>
<path d="M1048.62 14.8333C1050.11 10.2039 1056.66 10.2039 1058.14 14.8333L1058.92 17.2575C1059.59 19.3263 1061.51 20.7295 1063.68 20.7295H1066.33C1071.16 20.7295 1073.18 26.8962 1069.29 29.7573L1067.05 31.4099C1065.31 32.6831 1064.59 34.9198 1065.25 36.9657L1066.08 39.5618C1067.56 44.1791 1062.26 47.9909 1058.36 45.1176L1056.35 43.638C1054.58 42.3417 1052.18 42.3417 1050.42 43.638L1048.41 45.1176C1044.5 47.9909 1039.2 44.1791 1040.69 39.5618L1041.52 36.9657C1042.18 34.9198 1041.45 32.6831 1039.72 31.4099L1037.47 29.7573C1033.58 26.8962 1035.61 20.7295 1040.44 20.7295H1043.08C1045.26 20.7295 1047.18 19.3263 1047.84 17.2575L1048.62 14.8333Z" fill="#586157" fill-opacity="0.4"/>
<path d="M111.451 700.833C112.936 696.204 119.486 696.204 120.972 700.833L121.75 703.257C122.414 705.326 124.338 706.729 126.511 706.729H129.158C133.987 706.729 136.011 712.896 132.121 715.757L129.874 717.41C128.143 718.683 127.419 720.92 128.076 722.966L128.909 725.562C130.391 730.179 125.092 733.991 121.186 731.118L119.174 729.638C117.412 728.342 115.011 728.342 113.249 729.638L111.237 731.118C107.331 733.991 102.032 730.179 103.514 725.562L104.347 722.966C105.004 720.92 104.28 718.683 102.549 717.41L100.302 715.757C96.4122 712.896 98.4359 706.729 103.265 706.729H105.912C108.085 706.729 110.009 705.326 110.673 703.257L111.451 700.833Z" fill="#586157" fill-opacity="0.4"/>
</svg>
